<svg xmlns="http://www.w3.org/2000/svg" id="ETSU-Mtns" class="mtns--all" viewBox="0 0 1280 150" preserveAspectRatio="xMidYMid meet"><style type="text/css">@media (prefers-color-scheme: dark){path:nth-of-type(1){opacity:0.1}path:nth-of-type(2) {opacity:0.2}path:nth-of-type(3){opacity:0.3}path:nth-of-type(4){opacity:0.4}path:nth-of-type(5){opacity:0.5}path:nth-of-type(6){opacity:0.6}path:nth-of-type(7) {opacity:0.7}}</style><defs><mask id="mask"><rect width="100%" height="100%" fill="#FFF"/></mask><linearGradient id="Appalachia-Mountain--gradient" x1="49%" x2="51%" y1="100%" y2="0%" gradientTransform="matrix(1 0 0 -1 0 152)" gradientUnits="userSpaceOnUse"><stop offset="0" stop-color="rgba(104, 162, 185, 0.9)"/><stop offset="1" stop-color="rgba(255,255,255,0.8)"/></linearGradient><linearGradient id="Allegheny-Mountain--gradient" x1="50%" x2="50%" y1="100%" y2="0%" gradientTransform="matrix(1 0 0 -1 0 152)" gradientUnits="userSpaceOnUse"><stop offset="0" stop-color="rgba(104, 162, 185, 0.9)"/><stop offset="1" stop-color="rgba(255,255,255,0.9)"/></linearGradient><linearGradient id="Blue-Ridge-Mountain--gradient" x1="50%" x2="50%" y1="100%" y2="0%" gradientTransform="matrix(1 0 0 -1 0 152)" gradientUnits="userSpaceOnUse"><stop offset="0" stop-color="rgba(104, 162, 185, 1)"/><stop offset="1" stop-color="rgba(127, 38, 41, 0.9)"/></linearGradient><linearGradient id="Big-Walker-Mountain--gradient" x1="50%" x2="50%" y1="90%" y2="0%" gradientTransform="matrix(1 0 0 -1 0 152)"  gradientUnits="userSpaceOnUse"><stop offset="0" stop-color="rgba(78, 115, 138, 0.4)"/><stop offset="1" stop-color="rgba(0, 5, 62, 0.1)"/></linearGradient><linearGradient id="Holston-Mountain--gradient" x1="75%" x2="75%" y1="85%" y2="0%" gradientTransform="matrix(1 0 0 -1 0 152)" gradientUnits="userSpaceOnUse"><stop offset="0" stop-color="#4E738A"/><stop offset="1" stop-color="hsl(225.13, 100%, 22.16%)"/></linearGradient><linearGradient id="Grandfather-Mountain--gradient" x1="0%" x2="100%" y1="90%" y2="0%"  gradientTransform="matrix(1 0 0 -1 0 152)"  gradientUnits="userSpaceOnUse"><stop offset="0" stop-color="#4E738A"/><stop offset=".8" stop-color="hsl(225.13, 100%, 12.16%)"/></linearGradient><linearGradient id="Clinch-Mountain--gradient" x1="50%" x2="50%" y1="90%" y2="0%" gradientTransform="matrix(1 0 0 -1 0 152)" gradientUnits="userSpaceOnUse"><stop offset="0.2" stop-color="hsla(225.13, 100%, 17.16%, 0.8)"/><stop offset="1" stop-color="#4E738A"/></linearGradient><linearGradient id="Roan-Mountain--gradient" x1="75%" x2="75%"  y1="88%" y2="12%" gradientTransform="matrix(1 0 0 -1 0 152)"  gradientUnits="userSpaceOnUse"><stop offset="0" stop-color="hsl(235.16, 100%, 7.16%)"/><stop offset="1" stop-color="rgba(0, 28, 113, 0.7)"/></linearGradient><linearGradient id="Western-Carolina--gradient" x1="75%" x2="75%" y1="80%" y2="0%" gradientTransform="matrix(1 0 0 -1 0 152)" gradientUnits="userSpaceOnUse"><stop offset="0.2" stop-color="hsl(235.16, 100%, 10.16%)"/><stop offset="1" stop-color="rgba(0, 28, 113,0.8)"/></linearGradient><filter xmlns="http://www.w3.org/2000/svg" id="forest1" filterUnits="userSpaceOnUse"><feTurbulence xmlns="http://www.w3.org/2000/svg"  baseFrequency=".1" numOctaves="5" result="turb" seed="5"/><feDisplacementMap xmlns="http://www.w3.org/2000/svg" in="SourceGraphic" in2="turb" scale="15"  yChannelSelector="B"/></filter><filter xmlns="http://www.w3.org/2000/svg" id="forest2" filterUnits="userSpaceOnUse"><feTurbulence xmlns="http://www.w3.org/2000/svg" baseFrequency=".07" numOctaves="4" result="turb" seed="25"/><feDisplacementMap in="SourceGraphic" in2="turb" scale="20" xChannelSelector="R" yChannelSelector="B"/></filter><filter xmlns="http://www.w3.org/2000/svg" id="forest3" filterUnits="userSpaceOnUse"><feTurbulence xmlns="http://www.w3.org/2000/svg" baseFrequency=".06" result="turb" seed="1"/><feDisplacementMap in="SourceGraphic" in2="turb" scale="3" yChannelSelector="B"/></filter><filter xmlns="http://www.w3.org/2000/svg" id="forest4" filterUnits="userSpaceOnUse"><feTurbulence xmlns="http://www.w3.org/2000/svg" baseFrequency=".04" result="turb" seed="1"/><feDisplacementMap in="SourceGraphic" in2="turb" scale="3" yChannelSelector="B"/></filter><filter xmlns="http://www.w3.org/2000/svg" id="forest5" filterUnits="userSpaceOnUse"><feTurbulence xmlns="http://www.w3.org/2000/svg" baseFrequency=".03" result="turb" seed="1"/><feDisplacementMap in="SourceGraphic" in2="turb" scale="3" yChannelSelector="B"/></filter><filter xmlns="http://www.w3.org/2000/svg" id="forest6" filterUnits="userSpaceOnUse"><feTurbulence xmlns="http://www.w3.org/2000/svg" baseFrequency=".02" result="turb" seed="1"/><feDisplacementMap in="SourceGraphic" in2="turb" scale="3"  yChannelSelector="B"/></filter><filter xmlns="http://www.w3.org/2000/svg" id="forest7" filterUnits="userSpaceOnUse"><feTurbulence xmlns="http://www.w3.org/2000/svg" baseFrequency=".01" result="turb" seed="1"/> <feDisplacementMap in="SourceGraphic" in2="turb" scale="3" yChannelSelector="B"/>
</filter></defs> <path fill="url(#Appalachia-Mountain--gradient)" d="M1280 150.8V15.1l-12.1.2-11.6 1.7-11.7-.1-11.7-.9-11.7.8-11.7-.8-11.7.9-11.7-.4h-11.7l-11.7.2-11.7-.9-11.7 1.2-11.7-1.4-11.7.1-11.7.6-11.7-.4-11.7 1.2-11.7-.1-11.6-.6-11.5.4-11.5-1.5-11.5.6-11.5.2-11.5 1-11.4-.1h-23.2L954 18.3l-11.6.1-11.5.4-11.5 1-11.4 2-11.6-.6-11.4 1.9-11.5 1.1-11.3 1.1-11.7-.1-11.5 1.9-11.6-1-11.6.1-11.6.9-11.6-.7-11.6.8-11.6-.9-11.4-.7-11.6 1.1-11.5-.9-11.6.3-11.6-.5-11.5-1-11.6-.6-11.6-.3-11.6.9-11.6.2-11.6 1.2-11.8-1-11.2 3.2-11.5 1.8-11.6.8-11.5 1.7-11.6.4-11.6-.8-11.6.3-11.6-1.2-11.6.8-11.6-.4-11.6-1.1-11.6-1.1-11.7.6-11.5-2.3-11.6-.5-11.7.1-11.4-2.7-11.7.6-11.3-1.8-11.4 1.2-11.5-1.4-11.4 1.2-11.4-1.5-11.4.4-11.4-.4-11.4.7-11.4-1.6-11.4.9-11.4-.4-11.4.4-11.4-1.7-11.4.9-11.4-.3-11.4-.2-11.4-1.1-11.4-.3-11.4.4-11.4-.3-11.4-.3-11.4-1-11.4.4-11.4-.8-11.4 1.1-11.4-1.1-11.4-.7L103 17l-11.4.7-11.4-.9-11.4-.7L57.5 15l-11.4-.4H34.7l-11.4-.2L11.9 13 0 11.2V151l1280-.2z"/><path fill="url(#Allegheny-Mountain--gradient)" d="M1280 150.8V11.3l-11.9.7-11.3 2.2-11.4.4-11.4-.4-11.3 1.4-11.4-.3-11.4 1.4-11.4.2-11.4.6-11.4.7-11.4-.4-11.4 1.6-11.4-1-11.4.5-11.4 1-11.4-.1-11.4 1.4-11.4-.1-11.4-.8-11.4 1.7-11.4-1-11.4.8-11.4.2-11.4.9-11.4-.4-11.4-.3-11.4-.4-11.4.9-11.4-.3-11.4-.1-11.4.5-11.4 1.4-11.4-1.2-11.4 1.3-11.4.4-11.4.3-11.5-1.3-11.5 2.2-11.7-.3-11.6 1-11.5 1.8-11.6.3-11.5 1.7h-11.6l-11.6.1-11.5 2-11.7-.3-11.6.8-11.6-.1-11.6-.1-11.6-.6-11.6-1-11.6-.4-11.5-1.9-11.4-2.2-11.4-2.5-11.7-.2-11.6-.3-11.6-.6-11.6 1-11.6.6-11.6.1-11.5.7-11.7-.5-11.5 1.5-11.6.4-11.6-.2-11.5-.2-11.6 1.4-11.6-1.4-11.5.5-11.6 1-11.5-2-11.6.8-11.2-3-11.7.3-11.4-2-11.6.5-11.4-2.1-11.6-.2-11.5-1-11.6.2-11.4-2.1-11.7.6-11.5-.8-11.6.1-11.4-1.8-11.6.8-11.5-.3h-11.5l-11.6-.7-11.5 1.1-11.6.2-11.7-.4-11.7-.2-11.7-.7-11.6.7-11.7-.4-11.7 1.6-11.7-.6-11.7-.2-11.6-.4-11.7 1.3-11.7-.4-11.7-.2-11.7-.6-11.7.2-11.7.5-11.7.3-11.7-.8L0 15v136l1280-.2z"/> <path fill="url(#Blue-Ridge-Mountain--gradient)" d="M1280 149.4V10.1l-11.4 1.9-10.8 3-11.1 1h-11.2l-11 1.5-11.1-.3-11.1 1.2-11.1-.2-11.1.1-11.1.1-11.1-1.1-11.2.9-11.1-1.8-11.1-.3-11.1.2-11.1-.9-11.1.7-11.1-.5-11.1-.9-10.8 2.2-11.2 2.9-11.2 3.1-11.5 1.6-11.5 1.8-11.6.2h-11.6l-11.6-.3-11.6.8-11.6-.6-11.6-.4h-11.6l-11.6.8-11.5-1.8-11.6.5-11.6-.4-11.6-.6-11.7-1.9-11 3.6-11.4.5-11.2 1.5-11.1 2.3-11.3.6-11.2 2.1-11.3.4-11.2.4-11.3 2.1-11.1-1.1-11.2.5-11.2-.4-11.2-.2-11.2-.6-11.2-.7-11.2.2-11.2-.9-11.2-.3-10.9-2.9-11.2-1.1-11.4.6-11.4-.4-11.4.7-11.4-.3-11.3-1.4-11.3-.1-11.3-1.6-11.4.5-11.4-.5-11.3-1.2-11.3-1.1-11.4.6-11.3-2h-11.4l-11.4.7-11.3-2-11.4 1.5-11.4-1.1-11.3 2.5-11.4-1-11.4 1.4-11.4-1.2-11.4.6-11.4-.3-11.4 1-11.4-1.5-11.4 1-11.4-.3-11.4.6-11.4-1.5-11.4 1-11.4-.3-11.4-.1-11.4-1.1-11.4-.2-11.4.5-11.4-.3-11.4-.3-11.4-1-11.4.5-11.4-.7-11.4 1.1-11.4-1.1-11.4-.6-11.4-.8-11.4.9-11.4-.7-11.4-.4-11.4-.7-11.4.2-11.4.7-11.4.6-11.4-.4-11.4-.9L12 20.5 0 21.8.2 150l1279.8-.6z"/> <path fill="url(#Big-Walker-Mountain--gradient)" d="M1280 151l-.2-110.6-6.3-.5-11.5.6-11.5-.8-11.5-.3-11.5.8-11.4 1.4-11.3 1.9-11.5.7-11.2 3-11.4 1.4-11.5-.1-11.4 1.6-11.5-.6-11.5.1-11.4-1.1h-11.5l-11.4-1.9-11.3-1.9-11.4-1.2-11.6-.1-11.3-1.9-11.4-1.7-11.2-3-11.5-1-11.4-1.4-11.4-1.5-11.2-2.7-11.2-2.4-11.3-2.3-12 1.9-11.9 2.2-11.6 3.8-12.1 1.1-12.1.7-12 1.9-12 1.6-12.1.6-12.1-.3-12.4.4-10.6 3.6-11.1 2.6h-11.4l-11.3 1.5-11.4-1-11.2 1.1-11.3-1.2-11.4 1.1-11.2-1.3-11-2.4-11.2-1.1-11.2-.4-11.2-1.3-11.1-1.3-11.3-.3-11.2-1.1-11.2-1.3-11-2.8-11.2-1.1h-11.3L599 31.4l-11.8-.9-11.7.5-11.8 1.1-11.8.7-11.9.8-11.8.4-11.9.5h-11.9l-11.7 2.6-12-.5-11.7 2.5-11.8.6-11.2-1.9-11.3-1.2-11.3-1.4-11.5.2-11.2-2.2-11.3-1.6H378l-11.3-1.4-11.2-2.5-11.4-.9-11.3-1-11.4-.7-11.4-.5-11.3-1.9-11.3-.7-11.4 1.1-11.4-.7-11.3 2-11.3.5-11.4.8-11.4.6-11.1 2.9h-11.5l-11.3 1.5-11.6.9-11.6 1.1-11.6.4-11.5.4-11.6 1.1-11.6.2-11.6 1.4-11.6-.6-11.6-.3L69.3 37l-11.6-.6-11.6 1H34.5l-11.6.7-11.6 1-11.3 3L.2 151H1280z" filter="url(#forest7)"/><path fill="url(#Holston-Mountain--gradient)"  d="M568.7 78.2c18-4.8 64.9-8.4 70.9-14.3 6-6 48.1-10.8 57.7-9.6 9.6 1.2 25.3 3.2 31.3-.2s7.2 5 14.4 6.2 32.5-11.5 38.5-7c6 4.6 34.9-2.6 42.1-6.2 7.2-3.6 21.6-6 26.5 0 4.8 6 25.3-3.7 37.3-3.6 12 .1 31.3-4.7 36.1-7.1 4.8-2.4 19.2 9.6 25.3 9.6 6 0 20.4 0 24.1-3.6 3.6-3.6 1.8-2.4 3.6-3.6 9.6-2.4 22.8 2.4 30.1 2.4 7.2 0 28.9-3 33.7-5.1s9.6 2.1 15.6 0 13.2-3.3 18-5.7 16.8 4.8 24.1 4.8c7.2 0 14.4 2.4 21.7 3.6 7.2 1.2 4.5 2.7 7.2 1.2 8.4-4.8 6-6 14.4-3.6s44.4-2.4 49.9-1.2 6.7-4.6 13.9-5.3c7.2-.7 13.2 6.5 19.2 6.5s16.8 3.6 30.1-1.2 17.4 4.5 25.9 4.5V151c-35.2 0-723.2-1.1-896.7-.8 49.7-12 98-42.1 114.8-44.8 22.2-3.5 70.3-27.2 70.3-27.2z" filter="url(#forest6)"/><path fill="url(#Grandfather-Mountain--gradient)" d="M653.3 95.5c0-14.5-9.6-16.4-10.2-16.7-11.4-.9-12.9.9-12.9 1.4-5.2-.2-7.7 1-7.7 1-.1-.6-.7-1.8-2-2.6-.8-.4-1.1-1.5-2.3-1.8-.2 1.6-1.6 1.2-1.6 1.2-6.8-3.9-11.8-2.7-11.8-2.7-.9-1.4-.8-2.7-1.7-3-.2-3.4-.5-2.5-.5-2.5-1.6-2.9-6.8-3.4-6.8-3.4-2.2.1-3.3 2-3.9 1.4-.6.7.4 1.3-.8 1.8v-.4c-1.1-1.2-1.4-1.5-1.4-1.5-.6-3.8-3.5-3.2-3.5-3.2-.3-.6-.9-1.2-.9-1.2-.2-1.6-1.6-.9-1.9-2-2.9 1.5-4.2 1.1-4.2 1.1-.7-4.5-2-3.9-2-3.9-.5-3.7-4.2-6.1-4.2-6.1-2.1.9-7.9.9-7.9.9-6.4-4.1-28.3-3.8-28.3-3.8-1.2-2.3-7.5-2.4-10.7-3.8-3.8-.2-11.8-1.8-23.3-1.1-19.8 1.5-12.1-.8-23.3-1.4-17.3 1-7.4.3-23.3-.4-6.4-.2-10.3 1-11.3 1.2-6.7 4.1-17.3 2.2-20.7 1.9-2.4-.2-8.6-4.2-20.5-2.9-9 1.9-16.1 1.3-22.5 1.4-12.6.6-14.6 1.6-22.3 3.5-4.8-.2-13.6-.2-22.5 1.7-16.1-1.5-8.9-.2-22.6.1-12.8-3.7-19.4-2.8-23.7-3.1-12.3-4.8-19.8-3.1-26-4.8-12.1-6.5-14.8-3.1-21-4.4-3.9-.8-7.7-2.5-11.6-3.2-15.4-4.7-19.8-3-23.6-3.7-10.8-3.7-19.9-3.9-23.5-4.6-13.5-3.5-18-4.2-23.6-4.4-6.8-1.7-8.3-3.7-12.9-1.7-11 6.1-39.1 13.1-45 17.2-9.1-2.2-31.4-.4-35.3-.2-14.2 4.5-13.1.5-31.1 3.4-16.3-3.9-15.8 1-21.7 1s-11.7.1-14.8.2V150h789.7C696 131.1 653.3 95.5 653.3 95.5z" filter="url(#forest5)"/><path fill="url(#Clinch-Mountain--gradient)" d="M130.3 54.4c11.5 2 39.5 3.5 47.8 1.2s42.5-18.9 54.8-15.3 58 19.7 63 19.9c4.9.2 8.3-3.9 12.5-3.8 4.1.1 21.9 14.1 29.3 15.1s36.7-15.1 41.6-14.1 46.7 9.6 55.9 8.2c9.1-1.5 43.6-9 62.8-6 5.7 1.8 85.863 23.464 131.7 34.5 11.946-9.215 104.6-20.9 114.5-21.5s140.6-18.3 145.7-23.2c13.3-5.8 58.7-9.5 62.8-9 6.2-2.5 72.1-17.9 84.3-12.6 12.2 5.4 98.7 40.5 105.3 41.5s53.1-12.9 59.6-7.7 36.047 35.312 78.1 28.5V150H0V29s118.8 23.4 130.3 25.4z" filter="url(#forest4)"/><path fill="url(#Roan-Mountain--gradient)" d="M856.6 33.1c-16.4-3.5-19.7.1-36.6.1-13.7-11.9-24.2-16.8-35.8-23.7-13.1 2-32.3 15.9-73.4 31.9C640 73.7 636 94.2 615.2 88c-12.4.5-52.3-21-68.9-28.7-22.4 1.8-27.3 6.5-38.7 6.3-7.3.8-5.5 5.6-18.7 6.2l-7.7 5.1s-138 51.7-169.3 73.2h696.8S911.2 78.5 875.3 47.5c-2.7-5.4-18.6-14.3-18.7-14.4z" filter="url(#forest3)"/><path fill="url(#Western-Carolina--gradient)" d="M1280 149.2H660.7c69.3-10.9 93.3-26.2 117-40.4 13.8 18.7 47.2 26.5 69.7-9.3 9.7 15 21-.8 22.2-9.7 103.3.7 202.8-47.6 328.9-50.7 43.8 20.4 21.8 5.9 81.8 5.9l-.3 104.2z" filter="url(#forest2)"/><path fill="#00053E" d="M1330 200H-50V25.3c21.3 9 52.8 30.9 52.8 30.9C14.2 69.1 22.5 64.4 23 76.6c1.1-6.6 5.2-3.9 7.7-9.1C55 68.4 136 52 158.7 52.6c0 0 14.4 9.2 58.4 14.2 0 0 7.5.2 10.9-.8 0 0 5.4 0 8 1.5 0 0 2.7 2.2 6 2.6-.2 4.8 4-3.2 10.5 6.7.7-2.1 1.7-5.3 1.7-5.3 26 2.7 56.2 4.7 89.9 5.3-.8.9-3 4.4 1.1 3.2 5.1-2.1 3.8-.7 3-3.2 0-1.2 3.5-1.9 6.7-3.6 16.5 4.1 10 5.5 16.5 8.8.6-1.7 2.6-2.5 4.3-5.2-2.8 4.5 14.7-.2 9-.1 20.5 1.4 40.4-3.9 62.6-2.7 3.6 1.1 2.5 5.8 8.9 8.4 11.1.5 16.1 11.1 16.1 11.1 4.8-3 17.8-9.5 20 4 9.6 1.6 16.5-15.7 30.5 3.8 5.4-14.2 6-4.5 15.8-2.8 7.6-2.2 9.7 5.6 9.7 5.6 9.4-4.8 6.1 3.6 19.3 4.7 3.3 1.2 12.3-6 12.3-6 15.5 17.5 25.1 8.1 33 24.1 3.7 1.1 5.4-5 10.9-3.4 5.1 10.1 22.5-.3 26.8-.6 1.7-.1 3.5-.3 5.3-.4.4 3.6 17.5.2 21.2 5.3 7.6-1.2 2.8-6.5 10-6.7 1.9 3.8 11 9.5 11 9.5 8-6.5 11.6-1.8 28.3-9.1-.6 5.4 30.7 9.2 37.4 8.2 7.2-1 8.5-6.6 6.7-10.1 38 4.2 53-12.1 94.1-2.6 4.7 8.5 14.8-6.4 35.7 6.7 2.9-.2 4-11.1 4-11.1 8.8 1.5-.2-2 4.7-3.6 2.7-.2-.9 6.8 7.1 4.8-5.9 11.2 6 9.3 9.9 13.5 4.7-4 5.2-15.4 14.6-15.8 2.5-.3 4.4-9 7.4 7.3 2.2-.2 6.4-8.9 6.4-8.9 9.7-14.9-5.1 5.3 21.9-2.9l8.5 6c12-.8 5.6-8.3 5.6-8.3 9.4.9 19.5-3.7 19.5-3.7 0 13.1 12.4 14.9 12.4 14.9 11.3-13 8.6 15.2 20.6-11.1 2.1 4.5 7.5.8 7.5.8 12 24.6 21.1 15.6 24.4 7.1l5.8 6.3c-7.9 8 6.3 6.9.4 13.7 0 0 7.5-2.1 9.4-.8 1.8 23.3 31.5-12.5 31.5-12.5 1.7-.4 6.2 4.8 6.2 4.8 6.2-5 12 1.6 12 1.6 1.7-.1 2.8-6 2.8-6 2.1 7.1 7.7 7.7 7.7 7.7 5.9-.4 6.5-7.4 6.5-7.4 26.8 25.9 38.9-.8 38.9-.8 29.2 19.4 95.8-5.9 134.2 7V200z" filter="url(#forest1)"/></svg>